<?xml version="1.0" encoding="utf-8"?>
<!-- Generator: Adobe Illustrator 15.1.0, SVG Export Plug-In  -->
<!DOCTYPE svg PUBLIC "-//W3C//DTD SVG 1.1//EN" "http://www.w3.org/Graphics/SVG/1.1/DTD/svg11.dtd" [
	<!ENTITY ns_flows "http://ns.adobe.com/Flows/1.0/">
]>
<svg version="1.1"
	 xmlns="http://www.w3.org/2000/svg" xmlns:xlink="http://www.w3.org/1999/xlink" xmlns:a="http://ns.adobe.com/AdobeSVGViewerExtensions/3.0/"
	 x="0px" y="0px" width="72px" height="68px" viewBox="0 0 72 68" overflow="visible" enable-background="new 0 0 72 68"
	 xml:space="preserve">
<defs>
</defs>
<rect x="24.144" y="31.562" fill="#4D505D" width="2.639" height="26.69"/>
<polygon fill="#4D505D" points="33.792,22.363 33.792,59.118 50.224,58.252 50.224,22.363 "/>
<rect x="28.08" y="27.215" fill="#4D505D" width="4.414" height="31.037"/>
<path fill-rule="evenodd" clip-rule="evenodd" fill="#FFFFFF" d="M35.812,67.535c19.734,0,35.822-0.91,35.822-2.025
	c0-1.117-16.088-2.027-35.822-2.027C16.086,63.482,0,64.393,0,65.509C0,66.625,16.086,67.535,35.812,67.535z"/>
<path fill-rule="evenodd" clip-rule="evenodd" fill="#FBFBFB" d="M35.812,63.516c19.374,0,35.078,0.889,35.078,1.984
	c0,1.096-15.704,1.984-35.078,1.984c-19.366,0-35.068-0.889-35.068-1.984C0.745,64.404,16.447,63.516,35.812,63.516z"/>
<path fill-rule="evenodd" clip-rule="evenodd" fill="#F8F8F9" d="M35.812,63.548c18.964,0,34.336,0.87,34.336,1.943
	c0,1.072-15.372,1.942-34.336,1.942c-18.954,0-34.326-0.87-34.326-1.942C1.487,64.418,16.858,63.548,35.812,63.548z"/>
<path fill-rule="evenodd" clip-rule="evenodd" fill="#F8F8F9" d="M35.812,63.582c18.554,0,33.59,0.851,33.59,1.9
	c0,1.049-15.036,1.9-33.59,1.9c-18.543,0-33.581-0.851-33.581-1.9C2.231,64.433,17.269,63.582,35.812,63.582z"/>
<path fill-rule="evenodd" clip-rule="evenodd" fill="#F6F6F6" d="M35.812,63.615c18.143,0,32.848,0.832,32.848,1.858
	c0,1.025-14.705,1.858-32.848,1.858c-18.134,0-32.838-0.833-32.838-1.858C2.974,64.447,17.678,63.615,35.812,63.615z"/>
<path fill-rule="evenodd" clip-rule="evenodd" fill="#F3F4F4" d="M35.812,63.648c17.732,0,32.104,0.813,32.104,1.816
	c0,1.002-14.371,1.815-32.104,1.815c-17.724,0-32.097-0.812-32.097-1.815C3.716,64.461,18.089,63.648,35.812,63.648z"/>
<path fill-rule="evenodd" clip-rule="evenodd" fill="#F1F2F2" d="M35.812,63.68c17.322,0,31.361,0.795,31.361,1.774
	c0,0.98-14.039,1.774-31.361,1.774c-17.311,0-31.352-0.793-31.352-1.774C4.461,64.475,18.501,63.68,35.812,63.68z"/>
<path fill-rule="evenodd" clip-rule="evenodd" fill="#F1F2F2" d="M35.812,63.714c16.91,0,30.617,0.775,30.617,1.731
	s-13.707,1.731-30.617,1.731c-16.902,0-30.608-0.775-30.608-1.731S18.91,63.714,35.812,63.714z"/>
<path fill-rule="evenodd" clip-rule="evenodd" fill="#EFEFF0" d="M35.812,63.746c16.498,0,29.877,0.757,29.877,1.69
	s-13.379,1.689-29.877,1.689c-16.491,0-29.865-0.756-29.865-1.689S19.321,63.746,35.812,63.746z"/>
<path fill-rule="evenodd" clip-rule="evenodd" fill="#EDEDEE" d="M35.812,63.779c16.089,0,29.133,0.738,29.133,1.648
	s-13.044,1.647-29.133,1.647c-16.081,0-29.122-0.737-29.122-1.647S19.732,63.779,35.812,63.779z"/>
<path fill-rule="evenodd" clip-rule="evenodd" fill="#EDEDEE" d="M35.812,63.813c15.677,0,28.387,0.719,28.387,1.606
	c0,0.885-12.71,1.604-28.387,1.604c-15.671,0-28.378-0.719-28.378-1.604C7.435,64.532,20.141,63.813,35.812,63.813z"/>
<path fill-rule="evenodd" clip-rule="evenodd" fill="#EBEBEC" d="M35.812,63.846c15.267,0,27.645,0.7,27.645,1.563
	s-12.378,1.564-27.645,1.564c-15.259,0-27.635-0.701-27.635-1.564S20.553,63.846,35.812,63.846z"/>
<path fill-rule="evenodd" clip-rule="evenodd" fill="#E9E9EA" d="M35.812,63.879c14.856,0,26.9,0.682,26.9,1.521
	s-12.044,1.521-26.9,1.521C20.964,66.922,8.92,66.24,8.92,65.4S20.964,63.879,35.812,63.879z"/>
<path fill-rule="evenodd" clip-rule="evenodd" fill="#E6E7E8" d="M35.812,63.911c14.444,0,26.157,0.663,26.157,1.48
	c0,0.816-11.713,1.479-26.157,1.479c-14.44,0-26.149-0.663-26.149-1.479C9.664,64.574,21.372,63.911,35.812,63.911z"/>
<path fill-rule="evenodd" clip-rule="evenodd" fill="#E4E5E6" d="M35.812,63.945c14.035,0,25.414,0.644,25.414,1.437
	c0,0.794-11.379,1.438-25.414,1.438c-14.029,0-25.405-0.644-25.405-1.438C10.407,64.588,21.784,63.945,35.812,63.945z"/>
<path fill-rule="evenodd" clip-rule="evenodd" fill="#E4E5E6" d="M35.812,63.978c13.622,0,24.671,0.625,24.671,1.396
	c0,0.77-11.049,1.396-24.671,1.396c-13.616,0-24.661-0.625-24.661-1.396C11.152,64.603,22.196,63.978,35.812,63.978z"/>
<path fill-rule="evenodd" clip-rule="evenodd" fill="#E2E3E4" d="M35.812,64.01c13.212,0,23.928,0.607,23.928,1.354
	c0,0.748-10.716,1.353-23.928,1.353c-13.208,0-23.918-0.605-23.918-1.353C11.894,64.617,22.604,64.01,35.812,64.01z"/>
<path fill-rule="evenodd" clip-rule="evenodd" fill="#E0E1E2" d="M35.812,64.044c12.803,0,23.185,0.587,23.185,1.311
	c0,0.724-10.382,1.311-23.185,1.311c-12.797,0-23.174-0.587-23.174-1.311C12.639,64.631,23.016,64.044,35.812,64.044z"/>
<path fill-rule="evenodd" clip-rule="evenodd" fill="#E0E1E2" d="M35.812,64.077c12.391,0,22.441,0.568,22.441,1.27
	c0,0.7-10.051,1.269-22.441,1.269c-12.386,0-22.432-0.568-22.432-1.269C13.381,64.645,23.427,64.077,35.812,64.077z"/>
<path fill-rule="evenodd" clip-rule="evenodd" fill="#DEDFE0" d="M35.812,64.11c11.978,0,21.695,0.55,21.695,1.228
	c0,0.676-9.718,1.226-21.695,1.226c-11.977,0-21.688-0.55-21.688-1.226C14.125,64.66,23.836,64.11,35.812,64.11z"/>
<path fill-rule="evenodd" clip-rule="evenodd" fill="#DCDDDE" d="M35.812,64.144c11.569,0,20.954,0.53,20.954,1.185
	c0,0.654-9.385,1.185-20.954,1.185c-11.565,0-20.945-0.531-20.945-1.185C14.868,64.673,24.248,64.144,35.812,64.144z"/>
<path fill-rule="evenodd" clip-rule="evenodd" fill="#DADBDC" d="M35.812,64.176c11.157,0,20.209,0.513,20.209,1.144
	s-9.052,1.143-20.209,1.143c-11.155,0-20.201-0.512-20.201-1.143S24.657,64.176,35.812,64.176z"/>
<path fill-rule="evenodd" clip-rule="evenodd" fill="#DADBDC" d="M35.812,64.209c10.746,0,19.467,0.492,19.467,1.101
	s-8.721,1.101-19.467,1.101c-10.745,0-19.457-0.493-19.457-1.101S25.068,64.209,35.812,64.209z"/>
<path fill-rule="evenodd" clip-rule="evenodd" fill="#D8D9DA" d="M35.812,64.243c10.335,0,18.725,0.474,18.725,1.058
	c0,0.584-8.39,1.059-18.725,1.059c-10.334,0-18.714-0.474-18.714-1.059C17.098,64.717,25.478,64.243,35.812,64.243z"/>
<path fill-rule="evenodd" clip-rule="evenodd" fill="#D5D7D8" d="M35.812,64.275c9.926,0,17.98,0.455,17.98,1.016
	c0,0.562-8.055,1.017-17.98,1.017c-9.922,0-17.972-0.455-17.972-1.017C17.84,64.73,25.891,64.275,35.812,64.275z"/>
<path fill-rule="evenodd" clip-rule="evenodd" fill="#D5D7D8" d="M35.812,64.308c9.512,0,17.237,0.437,17.237,0.975
	c0,0.539-7.725,0.976-17.237,0.976s-17.228-0.438-17.228-0.976C18.585,64.745,26.3,64.308,35.812,64.308z"/>
<path fill-rule="evenodd" clip-rule="evenodd" fill="#D3D5D6" d="M35.812,64.342c9.104,0,16.492,0.417,16.492,0.933
	c0,0.515-7.389,0.932-16.492,0.932c-9.102,0-16.483-0.417-16.483-0.932C19.329,64.758,26.711,64.342,35.812,64.342z"/>
<path fill-rule="evenodd" clip-rule="evenodd" fill="#D1D3D4" d="M35.812,64.374c8.691,0,15.749,0.399,15.749,0.891
	c0,0.492-7.058,0.891-15.749,0.891s-15.74-0.399-15.74-0.891C20.072,64.773,27.121,64.374,35.812,64.374z"/>
<path fill-rule="evenodd" clip-rule="evenodd" fill="#CFD1D2" d="M35.812,64.407c8.279,0,15.007,0.38,15.007,0.849
	c0,0.469-6.728,0.848-15.007,0.848c-8.282,0-14.999-0.379-14.999-0.848C20.814,64.788,27.531,64.407,35.812,64.407z"/>
<path fill-rule="evenodd" clip-rule="evenodd" fill="#CDCFD0" d="M35.812,64.44c7.873,0,14.259,0.361,14.259,0.807
	c0,0.445-6.386,0.807-14.259,0.807c-7.871,0-14.255-0.361-14.255-0.807C21.558,64.801,27.941,64.44,35.812,64.44z"/>
<path fill-rule="evenodd" clip-rule="evenodd" fill="#CDCFD0" d="M35.812,64.473c7.459,0,13.517,0.343,13.517,0.765
	c0,0.421-6.058,0.764-13.517,0.764c-7.459,0-13.511-0.342-13.511-0.764C22.301,64.816,28.353,64.473,35.812,64.473z"/>
<ellipse fill-rule="evenodd" clip-rule="evenodd" fill="#CBCCCE" cx="35.812" cy="65.229" rx="12.771" ry="0.722"/>
<ellipse fill-rule="evenodd" clip-rule="evenodd" fill="#C9CACC" cx="35.812" cy="65.219" rx="12.024" ry="0.68"/>
<path fill-rule="evenodd" clip-rule="evenodd" fill="#C9CACC" d="M35.812,64.573c6.229,0,11.282,0.286,11.282,0.638
	c0,0.352-5.054,0.637-11.282,0.637c-6.228,0-11.281-0.285-11.281-0.637C24.532,64.858,29.585,64.573,35.812,64.573z"/>
<ellipse fill-rule="evenodd" clip-rule="evenodd" fill="#C7C8CA" cx="35.812" cy="65.201" rx="10.54" ry="0.596"/>
<ellipse fill-rule="evenodd" clip-rule="evenodd" fill="#C4C6C8" cx="35.812" cy="65.192" rx="9.794" ry="0.554"/>
<ellipse fill-rule="evenodd" clip-rule="evenodd" fill="#C2C4C6" cx="35.812" cy="65.184" rx="9.052" ry="0.512"/>
<ellipse fill-rule="evenodd" clip-rule="evenodd" fill="#C2C4C6" cx="35.812" cy="65.175" rx="8.308" ry="0.47"/>
<ellipse fill-rule="evenodd" clip-rule="evenodd" fill="#C0C2C4" cx="35.812" cy="65.166" rx="7.562" ry="0.428"/>
<ellipse fill-rule="evenodd" clip-rule="evenodd" fill="#BEC0C2" cx="35.812" cy="65.156" rx="6.82" ry="0.386"/>
<ellipse fill-rule="evenodd" clip-rule="evenodd" fill="#BCBEC0" cx="35.812" cy="65.148" rx="6.078" ry="0.344"/>
<path fill-rule="evenodd" clip-rule="evenodd" fill="#BCBEC0" d="M35.812,65.44c2.938,0,5.333-0.136,5.333-0.302
	c0-0.166-2.396-0.301-5.333-0.301c-2.938,0-5.335,0.135-5.335,0.301C30.478,65.305,32.874,65.44,35.812,65.44z"/>
<path fill="#F36C21" d="M68.416,30.538c0,7.202-2.359,13.729-7.079,19.581c-5.845,7.203-13.913,10.803-24.198,10.803
	c-10.227,0-18.262-3.478-24.105-10.436c-4.72-5.61-7.08-11.895-7.08-18.854c0-7.519,2.023-14.111,6.069-19.779
	c4.158-5.893,9.777-9.82,16.856-11.785c0.617-0.168,0.981-0.027,1.096,0.422c0.111,0.561-0.057,0.926-0.506,1.093
	C24.13,3.717,20.337,8.346,18.09,15.471c-1.405,4.433-2.106,9.287-2.106,14.561c0,7.014,1.601,13.242,4.804,18.685
	C24.72,55.392,30.17,58.73,37.139,58.73c14.165,0,21.247-9.637,21.247-28.912c0-7.269-1.124-13.243-3.371-17.92
	c-2.98-6.312-7.705-9.469-14.168-9.469c-3.484,0-6.489,1.124-9.019,3.367c-2.528,2.244-3.792,5.099-3.792,8.566
	c0,2.67,0.842,5.085,2.528,7.244c1.797,2.331,3.989,3.495,6.574,3.495c2.414,0,4.438-0.561,6.068-1.686
	c1.909-1.292,2.865-3.09,2.865-5.395c0-1.235-0.366-2.275-1.096-3.118c-0.73-0.843-1.686-1.265-2.865-1.265
	c-2.08,0-3.119,0.847-3.119,2.539c0,1.694,0.928,2.648,2.781,2.867c-0.787,0.274-1.489,0.41-2.107,0.41
	c-1.124,0-2.021-0.414-2.696-1.241s-1.012-1.792-1.012-2.896c0-1.489,0.575-2.676,1.729-3.559c1.15-0.882,2.514-1.323,4.087-1.323
	c2.023,0,3.638,0.801,4.848,2.402c1.208,1.602,1.814,3.443,1.814,5.521c0,3.428-1.012,6.167-3.038,8.218
	c-2.022,2.051-4.75,3.076-8.175,3.076c-3.709,0-6.827-1.468-9.355-4.408c-2.36-2.768-3.54-6.046-3.54-9.833
	c0-4.633,1.713-8.392,5.141-11.273c3.203-2.713,7.135-4.07,11.8-4.07c8.826,0,15.628,2.926,20.404,8.778
	C66.168,14.249,68.416,21.48,68.416,30.538z"/>
</svg>
